<svg width="54" height="44" viewBox="0 0 54 44" fill="none" xmlns="http://www.w3.org/2000/svg">
<path d="M40.5 22C40.4891 21.0354 40.0121 20.1133 39.1725 19.4333L29.52 11.55C29.0984 11.2085 28.5282 11.0168 27.9338 11.0168C27.3393 11.0168 26.7691 11.2085 26.3475 11.55C26.1366 11.7204 25.9692 11.9232 25.855 12.1466C25.7408 12.37 25.682 12.6096 25.682 12.8516C25.682 13.0937 25.7408 13.3333 25.855 13.5567C25.9692 13.7801 26.1366 13.9829 26.3475 14.1533L33.75 20.1666H11.25C10.6533 20.1666 10.081 20.3598 9.65901 20.7036C9.23705 21.0474 9 21.5137 9 22C9 22.4862 9.23705 22.9525 9.65901 23.2963C10.081 23.6401 10.6533 23.8333 11.25 23.8333H33.75L26.3475 29.865C25.9238 30.2078 25.6846 30.6737 25.6825 31.1602C25.6804 31.6467 25.9156 32.1139 26.3363 32.4591C26.757 32.8044 27.3287 32.9993 27.9258 33.001C28.5229 33.0027 29.0963 32.8111 29.52 32.4683L39.1725 24.585C40.0176 23.9005 40.495 22.9709 40.5 22Z" fill="white"/>
</svg>
