<svg width="43" height="45" viewBox="0 0 43 45" fill="none" xmlns="http://www.w3.org/2000/svg">
<g clip-path="url(#clip0_12_441)">
<path d="M31.3539 3.59436C29.3364 3.6272 27.3629 4.21659 25.6327 5.30299C23.9025 6.3894 22.4769 7.93436 21.4998 9.78186C20.5227 7.93436 19.097 6.3894 17.3668 5.30299C15.6366 4.21659 13.6631 3.6272 11.6456 3.59436C8.42945 3.74059 5.39932 5.21296 3.21721 7.6898C1.03509 10.1666 -0.121624 13.4466 -0.00023749 16.8131C-0.00023749 25.3387 8.57468 34.65 15.7664 40.9631C17.3722 42.3752 19.4024 43.1494 21.4998 43.1494C23.5972 43.1494 25.6274 42.3752 27.2331 40.9631C34.4248 34.65 42.9998 25.3387 42.9998 16.8131C43.1211 13.4466 41.9644 10.1666 39.7823 7.6898C37.6002 5.21296 34.5701 3.74059 31.3539 3.59436ZM24.9308 38.0944C23.9704 38.9407 22.7553 39.4048 21.4998 39.4048C20.2442 39.4048 19.0291 38.9407 18.0687 38.0944C8.86314 30.0112 3.5831 22.2562 3.5831 16.8131C3.46062 14.4407 4.2395 12.1139 5.74987 10.34C7.26024 8.56624 9.37956 7.48939 11.6456 7.34436C13.9116 7.48939 16.031 8.56624 17.5413 10.34C19.0517 12.1139 19.8306 14.4407 19.7081 16.8131C19.7081 17.3104 19.8969 17.7873 20.2329 18.1389C20.5689 18.4906 21.0246 18.6881 21.4998 18.6881C21.9749 18.6881 22.4307 18.4906 22.7667 18.1389C23.1027 17.7873 23.2914 17.3104 23.2914 16.8131C23.169 14.4407 23.9478 12.1139 25.4582 10.34C26.9686 8.56624 29.0879 7.48939 31.3539 7.34436C33.62 7.48939 35.7393 8.56624 37.2496 10.34C38.76 12.1139 39.5389 14.4407 39.4164 16.8131C39.4164 22.2562 34.1364 30.0112 24.9308 38.0869V38.0944Z" fill="white"/>
</g>
<defs>
<clipPath id="clip0_12_441">
<rect width="43" height="45" fill="white"/>
</clipPath>
</defs>
</svg>
