<svg width="45" height="45" viewBox="0 0 45 45" fill="none" xmlns="http://www.w3.org/2000/svg">
<g clip-path="url(#clip0_15_39)">
<path d="M35.625 11.25H18.8381L40.0087 3.63936C40.9837 3.28874 41.49 2.21624 41.1394 1.24124C40.7887 0.266239 39.7144 -0.245636 38.7413 0.110614L6.4725 11.7112C2.72062 12.9356 0 16.47 0 20.625V35.625C0 40.7944 4.20563 45 9.375 45H35.625C40.7944 45 45 40.7944 45 35.625V20.625C45 15.4556 40.7944 11.25 35.625 11.25ZM41.25 35.625C41.25 38.7319 38.7319 41.25 35.625 41.25H9.375C6.26813 41.25 3.75 38.7319 3.75 35.625V20.625C3.75 17.5181 6.26813 15 9.375 15H35.625C38.7319 15 41.25 17.5181 41.25 20.625V35.625ZM16.875 28.125C16.875 29.16 16.035 30 15 30H9.375C8.34 30 7.5 29.16 7.5 28.125C7.5 27.09 8.34 26.25 9.375 26.25H15C16.035 26.25 16.875 27.09 16.875 28.125ZM16.875 35.625C16.875 36.66 16.035 37.5 15 37.5H9.375C8.34 37.5 7.5 36.66 7.5 35.625C7.5 34.59 8.34 33.75 9.375 33.75H15C16.035 33.75 16.875 34.59 16.875 35.625ZM16.875 20.625C16.875 21.66 16.035 22.5 15 22.5H9.375C8.34 22.5 7.5 21.66 7.5 20.625C7.5 19.59 8.34 18.75 9.375 18.75H15C16.035 18.75 16.875 19.59 16.875 20.625ZM29.0625 19.6875C24.4106 19.6875 20.625 23.4731 20.625 28.125C20.625 32.7769 24.4106 36.5625 29.0625 36.5625C33.7144 36.5625 37.5 32.7769 37.5 28.125C37.5 23.4731 33.7144 19.6875 29.0625 19.6875ZM29.0625 32.8125C26.4788 32.8125 24.375 30.7087 24.375 28.125C24.375 25.5412 26.4788 23.4375 29.0625 23.4375C31.6462 23.4375 33.75 25.5412 33.75 28.125C33.75 30.7087 31.6462 32.8125 29.0625 32.8125Z" fill="white"/>
</g>
<defs>
<clipPath id="clip0_15_39">
<rect width="45" height="45" fill="white"/>
</clipPath>
</defs>
</svg>
